<svg xmlns="http://www.w3.org/2000/svg" xmlns:xlink="http://www.w3.org/1999/xlink" viewBox="0,0,256,256" width="24px" height="24px"><g fill="#ffffff" fill-rule="nonzero" stroke="none" stroke-width="1" stroke-linecap="butt" stroke-linejoin="miter" stroke-miterlimit="10" stroke-dasharray="" stroke-dashoffset="0" font-family="none" font-weight="none" font-size="none" text-anchor="none" style="mix-blend-mode: normal"><g transform="scale(16,16)"><path d="M2.75781,1c-0.96484,0 -1.75781,0.79297 -1.75781,1.75781v9.48828c0,0.96094 0.79297,1.75391 1.75781,1.75391h9.48828c0.96094,0 1.75391,-0.79297 1.75391,-1.75391v-9.48828c0,-0.96484 -0.79297,-1.75781 -1.75391,-1.75781zM2.75781,2h9.48828c0.42188,0 0.75391,0.33203 0.75391,0.75781v9.48828c0,0.42188 -0.33203,0.75391 -0.75391,0.75391h-9.48828c-0.42578,0 -0.75781,-0.33203 -0.75781,-0.75391v-9.48828c0,-0.42578 0.33203,-0.75781 0.75781,-0.75781zM4,3c-0.55078,0 -1,0.44922 -1,1c0,0.55078 0.44922,1 1,1c0.55078,0 1,-0.44922 1,-1c0,-0.55078 -0.44922,-1 -1,-1zM3,6v6h2v-6zM6,6v6h2v-2.67969c0,-0.83203 0.07813,-1.57813 1.07813,-1.57813c0.98438,0 0.92188,0.89453 0.92188,1.63281v2.625h2v-2.96094c0,-1.71875 -0.35937,-3.03906 -2.30859,-3.03906c-0.9375,0 -1.41016,0.375 -1.66797,0.875h-0.02344v-0.875z"></path></g></g></svg>